<svg xmlns="http://www.w3.org/2000/svg" viewBox="0 0 32 32" width="32" height="32" fill="none" stroke="#2d2a24" stroke-width="1.4" stroke-linecap="round" stroke-linejoin="round"><title>桂</title><path d="M4.6 28C9 21.6 14 15.6 26 5.6"/><path d="M9 22Q9.77 18.85 6.95 16.36Q6.39 20.08 9 22z" fill="#f6f0e1" stroke-width="1"/><path d="M8.75 21.32L7.4 17.6" stroke-width="0.6"/><path d="M9.4 21.6Q11.84 23.86 15.51 22.68Q12.46 20.31 9.4 21.6z" fill="#f6f0e1" stroke-width="1"/><path d="M10.13 21.73L14.16 22.44" stroke-width="0.6"/><path d="M15 15.4Q15.21 12.16 12 10.2Q12.09 13.96 15 15.4z" fill="#f6f0e1" stroke-width="1"/><path d="M14.64 14.78L12.66 11.35" stroke-width="0.6"/><path d="M15.4 15Q18.28 16.8 21.8 15Q18.28 13.2 15.4 15z" fill="#f6f0e1" stroke-width="1"/><path d="M16.17 15L20.39 15" stroke-width="0.6"/><path d="M21 10Q20.95 6.96 17.79 5.41Q18.16 8.91 21 10z" fill="#f6f0e1" stroke-width="1"/><path d="M20.61 9.45L18.49 6.42" stroke-width="0.6"/><path d="M21.4 9.6Q24.27 10.82 27.11 8.59Q23.68 7.47 21.4 9.6z" fill="#f6f0e1" stroke-width="1"/><path d="M22.09 9.48L25.86 8.81" stroke-width="0.6"/><circle cx="12.2" cy="19.6" r="0.9" fill="#f6f0e1" stroke-width="0.9"/><circle cx="13.4" cy="21" r="0.9" fill="#f6f0e1" stroke-width="0.9"/><circle cx="11.2" cy="21.2" r="0.9" fill="#f6f0e1" stroke-width="0.9"/><circle cx="18.2" cy="13.4" r="0.9" fill="#f6f0e1" stroke-width="0.9"/><circle cx="19.4" cy="14.8" r="0.9" fill="#f6f0e1" stroke-width="0.9"/><circle cx="17.2" cy="15" r="0.9" fill="#f6f0e1" stroke-width="0.9"/><circle cx="24.2" cy="8.8" r="0.9" fill="#f6f0e1" stroke-width="0.9"/><circle cx="25" cy="10.2" r="0.9" fill="#f6f0e1" stroke-width="0.9"/></svg>
