{
	"asset":{
		"generator":"Khronos glTF Blender I/O v5.2.40",
		"version":"2.0"
	},
	"scene":0,
	"scenes":[
		{
			"name":"Scene",
			"nodes":[
				0
			]
		}
	],
	"nodes":[
		{
			"mesh":0,
			"name":"shrub_04",
			"translation":[
				0.5103073120117188,
				0,
				0
			]
		}
	],
	"materials":[
		{
			"alphaMode":"MASK",
			"doubleSided":true,
			"name":"shrub_04",
			"normalTexture":{
				"index":0
			},
			"pbrMetallicRoughness":{
				"baseColorTexture":{
					"index":1
				},
				"metallicFactor":0,
				"metallicRoughnessTexture":{
					"index":2
				}
			}
		}
	],
	"meshes":[
		{
			"name":"Plane.063",
			"primitives":[
				{
					"attributes":{
						"POSITION":0,
						"NORMAL":1,
						"TEXCOORD_0":2
					},
					"indices":3,
					"material":0
				}
			]
		}
	],
	"textures":[
		{
			"sampler":0,
			"source":0
		},
		{
			"sampler":0,
			"source":1
		},
		{
			"sampler":0,
			"source":2
		}
	],
	"images":[
		{
			"mimeType": "image/webp",
			"name":"shrub_04_nor_gl_1k",
			"uri": "../../tex/models/shrub_04_lod/shrub_04_nor_gl_1k.webp"
		},
		{
			"mimeType": "image/webp",
			"name":"shrub_04_diff_1k",
			"uri": "../../tex/models/shrub_04_lod/shrub_04_diff_1k.webp"
		},
		{
			"mimeType": "image/webp",
			"name":"shrub_04_arm_1k",
			"uri": "../../tex/models/shrub_04_lod/shrub_04_arm_1k.webp"
		}
	],
	"accessors":[
		{
			"bufferView":0,
			"componentType":5126,
			"count":7719,
			"max":[
				0.04891474172472954,
				0.2132824808359146,
				0.0710594430565834
			],
			"min":[
				-0.5344022512435913,
				-0.005181340035051107,
				-0.07498317211866379
			],
			"type":"VEC3"
		},
		{
			"bufferView":1,
			"componentType":5126,
			"count":7719,
			"type":"VEC3"
		},
		{
			"bufferView":2,
			"componentType":5126,
			"count":7719,
			"type":"VEC2"
		},
		{
			"bufferView":3,
			"componentType":5123,
			"count":24591,
			"type":"SCALAR"
		}
	],
	"bufferViews":[
		{
			"buffer":0,
			"byteLength":92628,
			"byteOffset":0,
			"target":34962
		},
		{
			"buffer":0,
			"byteLength":92628,
			"byteOffset":92628,
			"target":34962
		},
		{
			"buffer":0,
			"byteLength":61752,
			"byteOffset":185256,
			"target":34962
		},
		{
			"buffer":0,
			"byteLength":49182,
			"byteOffset":247008,
			"target":34963
		}
	],
	"samplers":[
		{
			"magFilter":9729,
			"minFilter":9987
		}
	],
	"buffers":[
		{
			"byteLength":296192,
			"uri":"shrub_04_lod.bin"
		}
	]
}
