<svg xmlns="http://www.w3.org/2000/svg" viewBox="0 0 64 64" role="img" aria-label="DUOMEI">
  <rect width="64" height="64" rx="18" fill="#f8f5ef"/>
  <path d="M10 43c7-11 13-11 20 0m-7 0c6-8 12-8 18 0" fill="#aeb79d" stroke="#20201d" stroke-width="2.6" stroke-linecap="round" stroke-linejoin="round"/>
  <path d="M42 15c5 3 7 9 4 15 6-2 10-8 9-15" fill="none" stroke="#d5ad6c" stroke-width="2.8" stroke-linecap="round"/>
  <path d="M20 20c2-2 5-2 7 0m3 0c2-2 5-2 7 0" fill="none" stroke="#20201d" stroke-width="2.3" stroke-linecap="round"/>
  <path d="M42 43h12v4H42z" fill="#aeb79d" stroke="#20201d" stroke-width="2.2" stroke-linejoin="round"/>
  <path d="M45 47v2m6-2v2" stroke="#20201d" stroke-width="2" stroke-linecap="round"/>
</svg>
