{
	"asset":{
		"generator":"Khronos glTF Blender I/O v5.2.40",
		"version":"2.0"
	},
	"scene":0,
	"scenes":[
		{
			"name":"Scene",
			"nodes":[
				0
			]
		}
	],
	"nodes":[
		{
			"mesh":0,
			"name":"shrub_01_a",
			"translation":[
				0.6002307534217834,
				0,
				0
			]
		}
	],
	"materials":[
		{
			"alphaMode":"MASK",
			"doubleSided":true,
			"name":"shrub_01",
			"normalTexture":{
				"index":0
			},
			"pbrMetallicRoughness":{
				"baseColorTexture":{
					"index":1
				},
				"metallicFactor":0,
				"metallicRoughnessTexture":{
					"index":2
				}
			}
		}
	],
	"meshes":[
		{
			"name":"Circle.010",
			"primitives":[
				{
					"attributes":{
						"POSITION":0,
						"NORMAL":1,
						"TEXCOORD_0":2
					},
					"indices":3,
					"material":0
				}
			]
		}
	],
	"textures":[
		{
			"sampler":0,
			"source":0
		},
		{
			"sampler":0,
			"source":1
		},
		{
			"sampler":0,
			"source":2
		}
	],
	"images":[
		{
			"mimeType": "image/webp",
			"name":"shrub_01_nor_gl_2k",
			"uri": "../../tex/models/shrub_01_lod/shrub_01_nor_gl_2k.webp"
		},
		{
			"mimeType": "image/webp",
			"name":"shrub_01_diff_2k",
			"uri": "../../tex/models/shrub_01_lod/shrub_01_diff_2k.webp"
		},
		{
			"mimeType": "image/webp",
			"name":"shrub_01_arm_2k",
			"uri": "../../tex/models/shrub_01_lod/shrub_01_arm_2k.webp"
		}
	],
	"accessors":[
		{
			"bufferView":0,
			"componentType":5126,
			"count":8160,
			"max":[
				0.1316845417022705,
				0.3884752094745636,
				0.10545922815799713
			],
			"min":[
				-2.454923152923584,
				-0.00798740889877081,
				-0.1140170767903328
			],
			"type":"VEC3"
		},
		{
			"bufferView":1,
			"componentType":5126,
			"count":8160,
			"type":"VEC3"
		},
		{
			"bufferView":2,
			"componentType":5126,
			"count":8160,
			"type":"VEC2"
		},
		{
			"bufferView":3,
			"componentType":5123,
			"count":16380,
			"type":"SCALAR"
		}
	],
	"bufferViews":[
		{
			"buffer":0,
			"byteLength":97920,
			"byteOffset":0,
			"target":34962
		},
		{
			"buffer":0,
			"byteLength":97920,
			"byteOffset":97920,
			"target":34962
		},
		{
			"buffer":0,
			"byteLength":65280,
			"byteOffset":195840,
			"target":34962
		},
		{
			"buffer":0,
			"byteLength":32760,
			"byteOffset":261120,
			"target":34963
		}
	],
	"samplers":[
		{
			"magFilter":9729,
			"minFilter":9987
		}
	],
	"buffers":[
		{
			"byteLength":293880,
			"uri":"shrub_01_lod.bin"
		}
	]
}
