<svg xmlns="http://www.w3.org/2000/svg" viewBox="0 0 32 32" width="32" height="32" fill="none" stroke="#2d2a24" stroke-width="1.4" stroke-linecap="round" stroke-linejoin="round"><title>园门</title><path d="M3 13.5l3.5-5.4c.4-.6 1-.9 1.7-.9h15.6c.7 0 1.3.3 1.7.9l3.5 5.4z" fill="#e3d9c4"/><path d="M8 7.4h16" stroke-width="2.2"/><path d="M5 13.5h22V25H5z" fill="#f6f0e1"/><path d="M9.6 13.5V25M22.4 13.5V25"/><path d="M12.4 25v-8.6h7.2V25zM16 16.4V25" fill="#cbbfa6"/><path d="M6.6 16.6h1.6v4.6H6.6zM23.8 16.6h1.6v4.6h-1.6z" stroke-width="0.9"/><path d="M10.4 25v1.4h11.2V25M8.8 26.4v1.4h14.4v-1.4"/></svg>
